<svg version="1" xmlns="http://www.w3.org/2000/svg" width="308" height="308" viewBox="0 0 231.000000 231.000000"><path d="M21 54.5V68h17.5c9.6 0 17.5.2 17.5.4 0 .3-.7 3.3-1.4 6.8-.8 3.5-1.7 7.4-2 8.8-.7 3.4-6.2 29.4-7.5 35-.5 2.5-1.2 5.6-1.5 7-.2 1.4-1.4 7-2.5 12.5-1.2 5.5-2.4 11.1-2.6 12.5-.3 1.4-1.1 5-1.8 8l-1.2 5.5-17.6.3-17.5.2.1 13.3v13.2l49.3.3 49.2.2v-27l-10.7-.1c-6 0-13.9 0-17.6.1-6.2.1-6.8 0-6.4-1.7.3-1 1.3-5.6 2.2-10.3.9-4.7 2.3-11 3-14 .8-3 1.6-6.9 1.9-8.5.8-5.2 2.6-13.7 3.6-17.4.5-2 1.2-5.2 1.5-7.1.3-1.9 1.2-6.3 2-9.6.8-3.4 1.6-7.3 1.9-8.6.2-1.3 1.2-6.3 2.2-11.1l1.8-8.7h35.1V41.5l-49.3-.3L21 41v13.5zM160.5 42.2c-.3 1-7.1 32.7-10.1 47.3-.2 1.1-2.7 12.8-5.5 26s-5.3 24.8-5.5 25.8c-.2 1-.5 2.6-.8 3.5-.3.9-.8 3.3-1.1 5.2-.3 1.9-1.7 8.5-3 14.7-1.4 6.1-2.6 12.2-2.9 13.5-.2 1.3-.9 4.3-1.5 6.8s-1.1 5.1-1.1 5.7c0 1 10.6 1.3 49.8 1.3h49.9l-.1-13.5-.1-13.5H217c-6.3-.1-21.1-.1-32.8 0H163l.5-2.7c.2-1.6 3.2-15.3 6.5-30.6s6.2-28.8 6.4-30c2.2-10.8 9.5-45.4 10.6-50.2.7-2.8 1.4-6.2 1.7-7.8l.4-2.7H175c-10.3 0-14.2.3-14.5 1.2z"/></svg>