<?xml version="1.0" encoding="UTF-8"?>
<svg width="437px" height="55px" viewBox="0 0 437 55" version="1.1" xmlns="http://www.w3.org/2000/svg" xmlns:xlink="http://www.w3.org/1999/xlink">
    <title>IrimiaLab</title>
    <g id="Page-1" stroke="none" stroke-width="1" fill="none" fill-rule="evenodd">
        <g id="Desktop-HD" transform="translate(-399.000000, -416.000000)" fill="#FF2B32" fill-rule="nonzero">
            <path d="M431.992,470 L431.992,460.928 L420.328,460.928 L427.168,428.672 L438.832,428.672 L438.832,419.6 L406,419.6 L406,428.672 L417.664,428.672 L410.824,460.928 L399.16,460.928 L399.16,470 L431.992,470 Z M467.704,470 L467.704,461.36 L459.064,461.36 L461.656,449.264 C462.184,446.864 463.012,445.016 464.14,443.72 C465.268,442.424 466.792,441.776 468.712,441.776 C470.248,441.776 471.4,442.184 472.168,443 C472.936,443.816 473.32,444.92 473.32,446.312 C473.32,446.888 473.248,447.536 473.104,448.256 L473.104,448.256 L472.888,449.264 L482.536,448.544 L482.896,446.96 C483.088,446.096 483.22,445.364 483.292,444.764 C483.364,444.164 483.4,443.552 483.4,442.928 C483.4,439.904 482.548,437.54 480.844,435.836 C479.14,434.132 476.92,433.28 474.184,433.28 C472.024,433.28 470.08,433.784 468.352,434.792 C466.624,435.8 465.28,437.312 464.32,439.328 L464.32,439.328 L463.024,439.328 C462.736,437.408 461.872,435.92 460.432,434.864 C458.992,433.808 457.312,433.28 455.392,433.28 C454.288,433.28 453.124,433.484 451.9,433.892 C450.676,434.3 449.512,434.912 448.408,435.728 L448.408,435.728 L442.648,440.048 L447.472,446.528 L453.16,442.352 L453.88,442.784 L449.992,461.36 L443.08,461.36 L443.08,470 L467.704,470 Z M511.912,430.544 C512.824,430.544 513.7,430.364 514.54,430.004 C515.38,429.644 516.112,429.164 516.736,428.564 C517.36,427.964 517.852,427.244 518.212,426.404 C518.572,425.564 518.752,424.664 518.752,423.704 C518.752,422.744 518.572,421.844 518.212,421.004 C517.852,420.164 517.36,419.444 516.736,418.844 C516.112,418.244 515.38,417.764 514.54,417.404 C513.7,417.044 512.824,416.864 511.912,416.864 C510.952,416.864 510.064,417.044 509.248,417.404 C508.432,417.764 507.712,418.244 507.088,418.844 C506.464,419.444 505.972,420.164 505.612,421.004 C505.252,421.844 505.072,422.744 505.072,423.704 C505.072,424.664 505.252,425.564 505.612,426.404 C505.972,427.244 506.464,427.964 507.088,428.564 C507.712,429.164 508.432,429.644 509.248,430.004 C510.064,430.364 510.952,430.544 511.912,430.544 Z M506.584,471.008 C507.544,471.008 508.528,470.864 509.536,470.576 C510.544,470.288 511.528,469.808 512.488,469.136 L512.488,469.136 L522.928,462.08 L518.392,455.312 L508.744,461.936 L508.024,461.432 L512.344,443.36 C512.536,442.592 512.632,441.752 512.632,440.84 C512.632,439.688 512.428,438.644 512.02,437.708 C511.612,436.772 511.048,435.98 510.328,435.332 C509.608,434.684 508.768,434.18 507.808,433.82 C506.848,433.46 505.84,433.28 504.784,433.28 C503.824,433.28 502.84,433.424 501.832,433.712 C500.824,434 499.84,434.48 498.88,435.152 L498.88,435.152 L488.44,442.208 L492.976,448.976 L502.624,442.352 L503.344,442.856 L499.024,460.928 C498.832,461.696 498.736,462.536 498.736,463.448 C498.736,464.6 498.94,465.644 499.348,466.58 C499.756,467.516 500.32,468.308 501.04,468.956 C501.76,469.604 502.6,470.108 503.56,470.468 C504.52,470.828 505.528,471.008 506.584,471.008 Z M564.4,471.008 C565.36,471.008 566.332,470.864 567.316,470.576 C568.3,470.288 569.272,469.808 570.232,469.136 L570.232,469.136 L573.472,466.976 L568.936,460.208 L566.488,461.936 L565.768,461.432 L570.016,441.776 C570.112,441.392 570.172,441.068 570.196,440.804 C570.22,440.54 570.232,440.24 570.232,439.904 C570.232,438.08 569.692,436.52 568.612,435.224 C567.532,433.928 565.984,433.28 563.968,433.28 C562.24,433.28 560.836,433.7 559.756,434.54 C558.676,435.38 557.872,436.448 557.344,437.744 L557.344,437.744 L556.048,437.744 C555.808,436.496 555.28,435.44 554.464,434.576 C553.648,433.712 552.448,433.28 550.864,433.28 C549.52,433.28 548.32,433.652 547.264,434.396 C546.208,435.14 545.488,436.256 545.104,437.744 L545.104,437.744 L543.808,437.744 L544.528,434.288 L535.456,434.288 L527.896,470 L536.896,470 L542.368,444.512 C542.704,442.784 543.568,441.92 544.96,441.92 C546.208,441.92 546.832,442.592 546.832,443.936 C546.832,444.128 546.784,444.464 546.688,444.944 L546.688,444.944 L541.36,470 L550.432,470 L555.904,444.512 C556.048,443.792 556.312,443.18 556.696,442.676 C557.08,442.172 557.656,441.92 558.424,441.92 C559.72,441.92 560.368,442.592 560.368,443.936 C560.368,444.224 560.32,444.56 560.224,444.944 L560.224,444.944 L556.912,460.64 C556.72,461.6 556.624,462.416 556.624,463.088 C556.624,464.336 556.828,465.452 557.236,466.436 C557.644,467.42 558.208,468.248 558.928,468.92 C559.648,469.592 560.476,470.108 561.412,470.468 C562.348,470.828 563.344,471.008 564.4,471.008 Z M600.04,430.544 C600.952,430.544 601.828,430.364 602.668,430.004 C603.508,429.644 604.24,429.164 604.864,428.564 C605.488,427.964 605.98,427.244 606.34,426.404 C606.7,425.564 606.88,424.664 606.88,423.704 C606.88,422.744 606.7,421.844 606.34,421.004 C605.98,420.164 605.488,419.444 604.864,418.844 C604.24,418.244 603.508,417.764 602.668,417.404 C601.828,417.044 600.952,416.864 600.04,416.864 C599.08,416.864 598.192,417.044 597.376,417.404 C596.56,417.764 595.84,418.244 595.216,418.844 C594.592,419.444 594.1,420.164 593.74,421.004 C593.38,421.844 593.2,422.744 593.2,423.704 C593.2,424.664 593.38,425.564 593.74,426.404 C594.1,427.244 594.592,427.964 595.216,428.564 C595.84,429.164 596.56,429.644 597.376,430.004 C598.192,430.364 599.08,430.544 600.04,430.544 Z M594.712,471.008 C595.672,471.008 596.656,470.864 597.664,470.576 C598.672,470.288 599.656,469.808 600.616,469.136 L600.616,469.136 L611.056,462.08 L606.52,455.312 L596.872,461.936 L596.152,461.432 L600.472,443.36 C600.664,442.592 600.76,441.752 600.76,440.84 C600.76,439.688 600.556,438.644 600.148,437.708 C599.74,436.772 599.176,435.98 598.456,435.332 C597.736,434.684 596.896,434.18 595.936,433.82 C594.976,433.46 593.968,433.28 592.912,433.28 C591.952,433.28 590.968,433.424 589.96,433.712 C588.952,434 587.968,434.48 587.008,435.152 L587.008,435.152 L576.568,442.208 L581.104,448.976 L590.752,442.352 L591.472,442.856 L587.152,460.928 C586.96,461.696 586.864,462.536 586.864,463.448 C586.864,464.6 587.068,465.644 587.476,466.58 C587.884,467.516 588.448,468.308 589.168,468.956 C589.888,469.604 590.728,470.108 591.688,470.468 C592.648,470.828 593.656,471.008 594.712,471.008 Z M650.368,471.008 C652.432,471.008 654.4,470.384 656.272,469.136 L656.272,469.136 L660.52,466.256 L655.984,459.488 L652.528,461.936 L651.808,461.432 L657.568,434.288 L648.496,434.288 L647.488,439.04 L646.192,439.04 C645.664,437.312 644.632,435.92 643.096,434.864 C641.56,433.808 639.472,433.28 636.832,433.28 C633.856,433.28 631.18,433.88 628.804,435.08 C626.428,436.28 624.424,437.924 622.792,440.012 C621.16,442.1 619.912,444.536 619.048,447.32 C618.184,450.104 617.752,453.104 617.752,456.32 C617.752,458.432 618.088,460.376 618.76,462.152 C619.432,463.928 620.356,465.476 621.532,466.796 C622.708,468.116 624.088,469.148 625.672,469.892 C627.256,470.636 628.984,471.008 630.856,471.008 C632.392,471.008 633.724,470.852 634.852,470.54 C635.98,470.228 636.964,469.82 637.804,469.316 C638.644,468.812 639.352,468.212 639.928,467.516 C640.504,466.82 641.008,466.064 641.44,465.248 L641.44,465.248 L642.736,465.248 C643.12,467.072 644.032,468.488 645.472,469.496 C646.912,470.504 648.544,471.008 650.368,471.008 Z M634.384,462.368 C631.936,462.368 630.124,461.6 628.948,460.064 C627.772,458.528 627.184,456.752 627.184,454.736 C627.184,453.008 627.424,451.364 627.904,449.804 C628.384,448.244 629.08,446.888 629.992,445.736 C630.904,444.584 632.032,443.66 633.376,442.964 C634.72,442.268 636.256,441.92 637.984,441.92 C640.144,441.92 641.872,442.628 643.168,444.044 C644.464,445.46 645.112,447.296 645.112,449.552 C645.112,451.28 644.872,452.924 644.392,454.484 C643.912,456.044 643.228,457.4 642.34,458.552 C641.452,459.704 640.336,460.628 638.992,461.324 C637.648,462.02 636.112,462.368 634.384,462.368 Z M739.648,470 L739.648,460.928 L717.76,460.928 L726.544,419.6 L717.04,419.6 L706.528,469.136 L706.528,470 L739.648,470 Z M782.56,471.008 C784.624,471.008 786.592,470.384 788.464,469.136 L788.464,469.136 L792.712,466.256 L788.176,459.488 L784.72,461.936 L784,461.432 L789.76,434.288 L780.688,434.288 L779.68,439.04 L778.384,439.04 C777.856,437.312 776.824,435.92 775.288,434.864 C773.752,433.808 771.664,433.28 769.024,433.28 C766.048,433.28 763.372,433.88 760.996,435.08 C758.62,436.28 756.616,437.924 754.984,440.012 C753.352,442.1 752.104,444.536 751.24,447.32 C750.376,450.104 749.944,453.104 749.944,456.32 C749.944,458.432 750.28,460.376 750.952,462.152 C751.624,463.928 752.548,465.476 753.724,466.796 C754.9,468.116 756.28,469.148 757.864,469.892 C759.448,470.636 761.176,471.008 763.048,471.008 C764.584,471.008 765.916,470.852 767.044,470.54 C768.172,470.228 769.156,469.82 769.996,469.316 C770.836,468.812 771.544,468.212 772.12,467.516 C772.696,466.82 773.2,466.064 773.632,465.248 L773.632,465.248 L774.928,465.248 C775.312,467.072 776.224,468.488 777.664,469.496 C779.104,470.504 780.736,471.008 782.56,471.008 Z M766.576,462.368 C764.128,462.368 762.316,461.6 761.14,460.064 C759.964,458.528 759.376,456.752 759.376,454.736 C759.376,453.008 759.616,451.364 760.096,449.804 C760.576,448.244 761.272,446.888 762.184,445.736 C763.096,444.584 764.224,443.66 765.568,442.964 C766.912,442.268 768.448,441.92 770.176,441.92 C772.336,441.92 774.064,442.628 775.36,444.044 C776.656,445.46 777.304,447.296 777.304,449.552 C777.304,451.28 777.064,452.924 776.584,454.484 C776.104,456.044 775.42,457.4 774.532,458.552 C773.644,459.704 772.528,460.628 771.184,461.324 C769.84,462.02 768.304,462.368 766.576,462.368 Z M815.464,471.008 C818.152,471.008 820.696,470.456 823.096,469.352 C825.496,468.248 827.584,466.652 829.36,464.564 C831.136,462.476 832.54,459.944 833.572,456.968 C834.604,453.992 835.12,450.656 835.12,446.96 C835.12,442.832 834.04,439.52 831.88,437.024 C829.72,434.528 826.792,433.28 823.096,433.28 C818.056,433.28 814.288,435.344 811.792,439.472 L811.792,439.472 L810.496,439.472 L814.96,418.592 L805.816,418.592 L795.016,470 L804.016,470 L805.096,464.816 L806.392,464.816 C806.536,465.632 806.8,466.412 807.184,467.156 C807.568,467.9 808.108,468.56 808.804,469.136 C809.5,469.712 810.388,470.168 811.468,470.504 C812.548,470.84 813.88,471.008 815.464,471.008 Z M814.312,462.368 C812.152,462.368 810.472,461.72 809.272,460.424 C808.072,459.128 807.472,457.328 807.472,455.024 C807.472,453.2 807.724,451.484 808.228,449.876 C808.732,448.268 809.464,446.876 810.424,445.7 C811.384,444.524 812.524,443.6 813.844,442.928 C815.164,442.256 816.664,441.92 818.344,441.92 C820.6,441.92 822.388,442.58 823.708,443.9 C825.028,445.22 825.688,447.008 825.688,449.264 C825.688,451.04 825.424,452.708 824.896,454.268 C824.368,455.828 823.6,457.208 822.592,458.408 C821.584,459.608 820.384,460.556 818.992,461.252 C817.6,461.948 816.04,462.32 814.312,462.368 Z" id="IrimiaLab"></path>
        </g>
    </g>
</svg>